<svg xmlns="http://www.w3.org/2000/svg" xmlns:xlink="http://www.w3.org/1999/xlink" width="500" zoomAndPan="magnify" viewBox="0 0 375 187.499995" height="250" preserveAspectRatio="xMidYMid meet" version="1.0"><defs><g/><clipPath id="5422f89991"><path d="M 15.433594 19.46875 L 162.949219 19.46875 L 162.949219 166.988281 L 15.433594 166.988281 Z M 15.433594 19.46875 " clip-rule="nonzero"/></clipPath><clipPath id="f5176264a7"><path d="M 29.257812 19.46875 L 149.125 19.46875 C 156.761719 19.46875 162.949219 25.660156 162.949219 33.292969 L 162.949219 153.164062 C 162.949219 160.796875 156.761719 166.988281 149.125 166.988281 L 29.257812 166.988281 C 21.625 166.988281 15.433594 160.796875 15.433594 153.164062 L 15.433594 33.292969 C 15.433594 25.660156 21.625 19.46875 29.257812 19.46875 Z M 29.257812 19.46875 " clip-rule="nonzero"/></clipPath><clipPath id="d07abc8019"><path d="M 0.433594 0.46875 L 147.949219 0.46875 L 147.949219 147.988281 L 0.433594 147.988281 Z M 0.433594 0.46875 " clip-rule="nonzero"/></clipPath><clipPath id="1d11853db5"><path d="M 14.257812 0.46875 L 134.125 0.46875 C 141.761719 0.46875 147.949219 6.660156 147.949219 14.292969 L 147.949219 134.164062 C 147.949219 141.796875 141.761719 147.988281 134.125 147.988281 L 14.257812 147.988281 C 6.625 147.988281 0.433594 141.796875 0.433594 134.164062 L 0.433594 14.292969 C 0.433594 6.660156 6.625 0.46875 14.257812 0.46875 Z M 14.257812 0.46875 " clip-rule="nonzero"/></clipPath><clipPath id="2ed39ddb11"><rect x="0" width="148" y="0" height="148"/></clipPath><clipPath id="30df7ba3a0"><path d="M 38.183594 42.675781 L 70 42.675781 L 70 143.65625 L 38.183594 143.65625 Z M 38.183594 42.675781 " clip-rule="nonzero"/></clipPath><clipPath id="54386e519f"><path d="M 110 42.675781 L 141.441406 42.675781 L 141.441406 143.65625 L 110 143.65625 Z M 110 42.675781 " clip-rule="nonzero"/></clipPath><clipPath id="84d2d78326"><path d="M 0.769531 9 L 20 9 L 20 38 L 0.769531 38 Z M 0.769531 9 " clip-rule="nonzero"/></clipPath><clipPath id="cce2cc9225"><rect x="0" width="188" y="0" height="47"/></clipPath><clipPath id="5f046bf2bb"><rect x="0" width="122" y="0" height="10"/></clipPath></defs><g clip-path="url(#5422f89991)"><g clip-path="url(#f5176264a7)"><g transform="matrix(1, 0, 0, 1, 15, 19)"><g clip-path="url(#2ed39ddb11)"><g clip-path="url(#d07abc8019)"><g clip-path="url(#1d11853db5)"><path fill="#f9ca02" d="M 0.433594 0.46875 L 147.949219 0.46875 L 147.949219 147.988281 L 0.433594 147.988281 Z M 0.433594 0.46875 " fill-opacity="1" fill-rule="nonzero"/></g></g></g></g></g></g><g clip-path="url(#30df7ba3a0)"><path fill="#efefef" d="M 66.285156 53.90625 L 69.09375 53.90625 L 69.09375 42.675781 L 66.285156 42.675781 C 56.976562 42.675781 49.433594 50.21875 49.433594 59.523438 L 49.433594 79.183594 C 49.433594 80.949219 48.601562 82.613281 47.1875 83.675781 L 40.449219 88.730469 C 39.097656 89.742188 38.277344 91.304688 38.207031 92.992188 C 38.136719 94.675781 38.828125 96.300781 40.085938 97.421875 L 47.546875 104.054688 C 48.75 105.117188 49.433594 106.648438 49.433594 108.25 L 49.433594 126.921875 C 49.433594 136.230469 56.976562 143.773438 66.285156 143.773438 L 69.09375 143.773438 L 69.09375 132.539062 L 66.285156 132.539062 C 63.183594 132.539062 60.667969 130.023438 60.667969 126.921875 L 60.667969 108.25 C 60.667969 103.4375 58.609375 98.855469 55.011719 95.65625 L 52.6875 93.59375 L 53.925781 92.660156 C 58.171875 89.480469 60.667969 84.484375 60.667969 79.183594 L 60.667969 59.523438 C 60.667969 56.421875 63.183594 53.90625 66.285156 53.90625 Z M 66.285156 53.90625 " fill-opacity="1" fill-rule="evenodd"/></g><g clip-path="url(#54386e519f)"><path fill="#efefef" d="M 113.566406 53.90625 L 110.757812 53.90625 L 110.757812 42.675781 L 113.566406 42.675781 C 122.871094 42.675781 130.417969 50.21875 130.417969 59.523438 L 130.417969 79.183594 C 130.417969 80.949219 131.25 82.613281 132.664062 83.675781 L 139.402344 88.730469 C 140.75 89.742188 141.574219 91.304688 141.644531 92.992188 C 141.714844 94.675781 141.023438 96.300781 139.765625 97.421875 L 132.300781 104.054688 C 131.101562 105.117188 130.417969 106.648438 130.417969 108.25 L 130.417969 126.921875 C 130.417969 136.230469 122.871094 143.773438 113.566406 143.773438 L 110.757812 143.773438 L 110.757812 132.539062 L 113.566406 132.539062 C 116.667969 132.539062 119.183594 130.023438 119.183594 126.921875 L 119.183594 108.25 C 119.183594 103.4375 121.242188 98.855469 124.839844 95.65625 L 127.164062 93.59375 L 125.921875 92.660156 C 121.679688 89.480469 119.183594 84.484375 119.183594 79.183594 L 119.183594 59.523438 C 119.183594 56.421875 116.667969 53.90625 113.566406 53.90625 Z M 113.566406 53.90625 " fill-opacity="1" fill-rule="evenodd"/></g><g transform="matrix(1, 0, 0, 1, 168, 69)"><g clip-path="url(#cce2cc9225)"><g clip-path="url(#84d2d78326)"><g fill="#292929" fill-opacity="1"><g transform="translate(0.799861, 37.534364)"><g><path d="M 18.921875 -8.203125 C 18.921875 -5.503906 17.972656 -3.382812 16.078125 -1.84375 C 14.179688 -0.3125 11.859375 0.453125 9.109375 0.453125 C 5.628906 0.453125 2.644531 -0.28125 0.15625 -1.75 L 1.9375 -5.984375 C 3.925781 -4.128906 6.15625 -3.203125 8.625 -3.203125 C 9.914062 -3.203125 11.023438 -3.554688 11.953125 -4.265625 C 12.878906 -4.984375 13.34375 -5.976562 13.34375 -7.25 C 13.34375 -8.164062 13.035156 -8.976562 12.421875 -9.6875 C 11.816406 -10.394531 11.0625 -10.953125 10.15625 -11.359375 C 9.257812 -11.765625 8.273438 -12.238281 7.203125 -12.78125 C 6.140625 -13.332031 5.15625 -13.890625 4.25 -14.453125 C 3.351562 -15.015625 2.597656 -15.8125 1.984375 -16.84375 C 1.367188 -17.875 1.0625 -19.0625 1.0625 -20.40625 C 1.0625 -23.019531 1.96875 -25 3.78125 -26.34375 C 5.601562 -27.695312 8.03125 -28.375 11.0625 -28.375 C 12.207031 -28.375 13.53125 -28.144531 15.03125 -27.6875 C 16.53125 -27.226562 17.671875 -26.695312 18.453125 -26.09375 L 15.828125 -22.8125 C 14.398438 -24.082031 12.644531 -24.71875 10.5625 -24.71875 C 9.5 -24.71875 8.578125 -24.4375 7.796875 -23.875 C 7.023438 -23.3125 6.640625 -22.523438 6.640625 -21.515625 C 6.640625 -20.617188 6.941406 -19.832031 7.546875 -19.15625 C 8.160156 -18.488281 8.914062 -17.953125 9.8125 -17.546875 C 10.71875 -17.140625 11.703125 -16.65625 12.765625 -16.09375 C 13.835938 -15.53125 14.828125 -14.960938 15.734375 -14.390625 C 16.640625 -13.828125 17.394531 -13.007812 18 -11.9375 C 18.613281 -10.875 18.921875 -9.628906 18.921875 -8.203125 Z M 18.921875 -8.203125 "/></g></g></g></g><g fill="#292929" fill-opacity="1"><g transform="translate(19.869504, 37.534364)"><g><path d="M 27.390625 -13.921875 C 27.390625 -9.722656 26.179688 -6.28125 23.765625 -3.59375 C 21.347656 -0.914062 18.066406 0.421875 13.921875 0.421875 C 9.773438 0.421875 6.535156 -0.929688 4.203125 -3.640625 C 1.878906 -6.347656 0.71875 -9.800781 0.71875 -14 C 0.71875 -18.21875 1.890625 -21.660156 4.234375 -24.328125 C 6.578125 -27.003906 9.816406 -28.34375 13.953125 -28.34375 C 18.203125 -28.34375 21.503906 -27.007812 23.859375 -24.34375 C 26.210938 -21.6875 27.390625 -18.210938 27.390625 -13.921875 Z M 21.734375 -13.765625 C 21.734375 -15.117188 21.609375 -16.394531 21.359375 -17.59375 C 21.109375 -18.800781 20.703125 -19.957031 20.140625 -21.0625 C 19.578125 -22.175781 18.769531 -23.0625 17.71875 -23.71875 C 16.664062 -24.382812 15.425781 -24.71875 14 -24.71875 C 12.601562 -24.71875 11.378906 -24.40625 10.328125 -23.78125 C 9.285156 -23.15625 8.484375 -22.316406 7.921875 -21.265625 C 7.367188 -20.210938 6.960938 -19.09375 6.703125 -17.90625 C 6.453125 -16.726562 6.328125 -15.476562 6.328125 -14.15625 C 6.328125 -12.800781 6.453125 -11.519531 6.703125 -10.3125 C 6.960938 -9.101562 7.367188 -7.945312 7.921875 -6.84375 C 8.484375 -5.738281 9.289062 -4.851562 10.34375 -4.1875 C 11.40625 -3.53125 12.648438 -3.203125 14.078125 -3.203125 C 15.472656 -3.203125 16.691406 -3.515625 17.734375 -4.140625 C 18.773438 -4.765625 19.578125 -5.601562 20.140625 -6.65625 C 20.703125 -7.707031 21.109375 -8.820312 21.359375 -10 C 21.609375 -11.1875 21.734375 -12.441406 21.734375 -13.765625 Z M 21.734375 -13.765625 "/></g></g></g><g fill="#292929" fill-opacity="1"><g transform="translate(47.367955, 37.534364)"><g><path d="M 18.390625 -24.140625 L 7.859375 -24.140625 L 7.859375 -16.25 L 15.984375 -16.25 L 15.984375 -12.46875 L 7.859375 -12.46875 L 7.859375 0 L 2.5625 0 L 2.5625 -25.59375 C 2.5625 -25.613281 2.515625 -25.800781 2.421875 -26.15625 C 2.328125 -26.519531 2.234375 -26.890625 2.140625 -27.265625 C 2.054688 -27.648438 2.015625 -27.867188 2.015625 -27.921875 L 18.390625 -27.921875 Z M 18.390625 -24.140625 "/></g></g></g><g fill="#292929" fill-opacity="1"><g transform="translate(66.208766, 37.534364)"><g><path d="M 21.546875 -24.140625 L 13.6875 -24.140625 L 13.6875 0 L 8.234375 0 L 8.234375 -24.140625 L 0.5 -24.140625 L 0.5 -27.921875 L 21.546875 -27.921875 Z M 21.546875 -24.140625 "/></g></g></g><g fill="#292929" fill-opacity="1"><g transform="translate(87.643054, 37.534364)"><g><path d="M 34.625 -27.921875 L 26.890625 0.078125 L 22.15625 0.078125 C 21.875 -0.890625 21.410156 -2.523438 20.765625 -4.828125 C 20.117188 -7.128906 19.566406 -9.132812 19.109375 -10.84375 C 18.648438 -12.5625 18.226562 -14.210938 17.84375 -15.796875 C 17.488281 -17.316406 17.238281 -18.738281 17.09375 -20.0625 C 16.757812 -17.820312 16.328125 -15.722656 15.796875 -13.765625 L 12.015625 0.078125 L 7.125 0.078125 L -0.53125 -27.921875 L 4.734375 -27.921875 C 7.398438 -18.253906 8.875 -12.875 9.15625 -11.78125 C 9.488281 -10.40625 9.78125 -8.789062 10.03125 -6.9375 C 10.257812 -8.59375 10.703125 -10.679688 11.359375 -13.203125 L 15.375 -27.921875 L 19.796875 -27.921875 C 20.097656 -26.796875 20.570312 -25.109375 21.21875 -22.859375 C 21.875 -20.609375 22.441406 -18.585938 22.921875 -16.796875 C 23.398438 -15.003906 23.84375 -13.304688 24.25 -11.703125 C 24.5625 -10.460938 24.832031 -8.875 25.0625 -6.9375 C 25.363281 -9.125 25.796875 -11.210938 26.359375 -13.203125 L 30.390625 -27.921875 Z M 34.625 -27.921875 "/></g></g></g><g fill="#292929" fill-opacity="1"><g transform="translate(121.129392, 37.534364)"><g><path d="M 23.984375 0 L 18.34375 0 L 15.59375 -8.015625 L 7.359375 -8.015625 L 4.5 0 L 0.078125 0 L 9.953125 -27.921875 L 14.109375 -27.921875 Z M 14.34375 -11.75 C 13.125 -15.488281 12.15625 -18.664062 11.4375 -21.28125 C 10.570312 -18.101562 9.644531 -14.925781 8.65625 -11.75 Z M 14.34375 -11.75 "/></g></g></g><g fill="#292929" fill-opacity="1"><g transform="translate(144.585064, 37.534364)"><g><path d="M 23.53125 0 L 17.578125 0 L 9.84375 -12.4375 L 7.75 -12.4375 L 7.75 0 L 2.515625 0 L 2.515625 -25.59375 C 2.515625 -25.644531 2.425781 -26.019531 2.25 -26.71875 C 2.070312 -27.414062 1.96875 -27.816406 1.9375 -27.921875 L 11.515625 -27.921875 C 14.335938 -27.921875 16.613281 -27.320312 18.34375 -26.125 C 20.070312 -24.925781 20.9375 -22.984375 20.9375 -20.296875 C 20.9375 -18.710938 20.335938 -17.234375 19.140625 -15.859375 C 17.953125 -14.492188 16.566406 -13.617188 14.984375 -13.234375 Z M 15.40625 -20.328125 C 15.40625 -21.523438 14.984375 -22.453125 14.140625 -23.109375 C 13.304688 -23.773438 12.265625 -24.109375 11.015625 -24.109375 L 7.75 -24.109375 L 7.75 -16.171875 L 10.1875 -16.171875 C 13.664062 -16.171875 15.40625 -17.554688 15.40625 -20.328125 Z M 15.40625 -20.328125 "/></g></g></g><g fill="#292929" fill-opacity="1"><g transform="translate(166.515165, 37.534364)"><g><path d="M 19.53125 0 L 2.5625 0 L 2.5625 -25.59375 L 1.984375 -27.921875 L 19.53125 -27.921875 L 19.53125 -24.140625 L 7.78125 -24.140625 L 7.78125 -16.25 L 16.78125 -16.25 L 16.78125 -12.46875 L 7.78125 -12.46875 L 7.78125 -3.78125 L 19.53125 -3.78125 Z M 19.53125 0 "/></g></g></g></g></g><g fill="#ffffff" fill-opacity="1"><g transform="translate(68.098496, 107.338756)"><g><path d="M 23.96875 0 L 18.328125 0 L 15.578125 -8 L 7.359375 -8 L 4.5 0 L 0.078125 0 L 9.9375 -27.890625 L 14.09375 -27.890625 Z M 14.328125 -11.734375 C 13.109375 -15.460938 12.140625 -18.632812 11.421875 -21.25 C 10.566406 -18.082031 9.640625 -14.910156 8.640625 -11.734375 Z M 14.328125 -11.734375 "/></g></g></g><g fill="#ffffff" fill-opacity="1"><g transform="translate(90.609271, 107.338756)"><g><path d="M 18.890625 -8.1875 C 18.890625 -5.5 17.941406 -3.382812 16.046875 -1.84375 C 14.160156 -0.3125 11.847656 0.453125 9.109375 0.453125 C 5.628906 0.453125 2.644531 -0.28125 0.15625 -1.75 L 1.9375 -5.984375 C 3.925781 -4.128906 6.148438 -3.203125 8.609375 -3.203125 C 9.898438 -3.203125 11.007812 -3.554688 11.9375 -4.265625 C 12.863281 -4.972656 13.328125 -5.960938 13.328125 -7.234375 C 13.328125 -8.148438 13.019531 -8.960938 12.40625 -9.671875 C 11.800781 -10.390625 11.046875 -10.953125 10.140625 -11.359375 C 9.242188 -11.765625 8.257812 -12.238281 7.1875 -12.78125 C 6.125 -13.320312 5.140625 -13.875 4.234375 -14.4375 C 3.335938 -15 2.582031 -15.789062 1.96875 -16.8125 C 1.363281 -17.84375 1.0625 -19.03125 1.0625 -20.375 C 1.0625 -22.988281 1.96875 -24.96875 3.78125 -26.3125 C 5.601562 -27.664062 8.023438 -28.34375 11.046875 -28.34375 C 12.191406 -28.34375 13.507812 -28.113281 15 -27.65625 C 16.5 -27.195312 17.644531 -26.664062 18.4375 -26.0625 L 15.8125 -22.78125 C 14.382812 -24.050781 12.628906 -24.6875 10.546875 -24.6875 C 9.484375 -24.6875 8.5625 -24.40625 7.78125 -23.84375 C 7.007812 -23.289062 6.625 -22.503906 6.625 -21.484375 C 6.625 -20.597656 6.925781 -19.816406 7.53125 -19.140625 C 8.144531 -18.460938 8.898438 -17.921875 9.796875 -17.515625 C 10.703125 -17.109375 11.6875 -16.625 12.75 -16.0625 C 13.820312 -15.507812 14.804688 -14.945312 15.703125 -14.375 C 16.609375 -13.800781 17.363281 -12.984375 17.96875 -11.921875 C 18.582031 -10.859375 18.890625 -9.613281 18.890625 -8.1875 Z M 18.890625 -8.1875 "/></g></g></g><g transform="matrix(1, 0, 0, 1, 204, 115)"><g clip-path="url(#5f046bf2bb)"><g fill="#292929" fill-opacity="1"><g transform="translate(1.045599, 7.748523)"><g><path d="M 4.90625 -2.640625 C 4.90625 -1.828125 4.660156 -1.175781 4.171875 -0.6875 C 3.710938 -0.226562 3.109375 0 2.359375 0 L 0.484375 0 L 0.484375 -4.84375 C 0.484375 -4.84375 0.460938 -4.910156 0.421875 -5.046875 C 0.390625 -5.191406 0.375 -5.269531 0.375 -5.28125 L 2.375 -5.28125 C 3.164062 -5.28125 3.785156 -5.035156 4.234375 -4.546875 C 4.679688 -4.066406 4.90625 -3.429688 4.90625 -2.640625 Z M 3.84375 -2.609375 C 3.84375 -2.953125 3.789062 -3.265625 3.6875 -3.546875 C 3.59375 -3.835938 3.425781 -4.078125 3.1875 -4.265625 C 2.957031 -4.460938 2.660156 -4.5625 2.296875 -4.5625 L 1.484375 -4.5625 L 1.484375 -0.71875 L 2.3125 -0.71875 C 2.582031 -0.71875 2.816406 -0.769531 3.015625 -0.875 C 3.222656 -0.976562 3.382812 -1.117188 3.5 -1.296875 C 3.613281 -1.472656 3.695312 -1.671875 3.75 -1.890625 C 3.8125 -2.109375 3.84375 -2.347656 3.84375 -2.609375 Z M 3.84375 -2.609375 "/></g></g></g><g fill="#292929" fill-opacity="1"><g transform="translate(5.981086, 7.748523)"><g><path d="M 1.46875 0 L 0.46875 0 L 0.46875 -4.84375 C 0.46875 -4.84375 0.457031 -4.875 0.4375 -4.9375 C 0.425781 -5.007812 0.410156 -5.082031 0.390625 -5.15625 C 0.378906 -5.226562 0.375 -5.269531 0.375 -5.28125 L 1.46875 -5.28125 Z M 1.46875 0 "/></g></g></g><g fill="#292929" fill-opacity="1"><g transform="translate(7.802088, 7.748523)"><g><path d="M 3.578125 -1.546875 C 3.578125 -1.035156 3.394531 -0.632812 3.03125 -0.34375 C 2.675781 -0.0507812 2.238281 0.09375 1.71875 0.09375 C 1.0625 0.09375 0.5 -0.046875 0.03125 -0.328125 L 0.375 -1.140625 C 0.75 -0.785156 1.164062 -0.609375 1.625 -0.609375 C 1.875 -0.609375 2.085938 -0.675781 2.265625 -0.8125 C 2.441406 -0.945312 2.53125 -1.132812 2.53125 -1.375 C 2.53125 -1.539062 2.472656 -1.691406 2.359375 -1.828125 C 2.242188 -1.960938 2.097656 -2.066406 1.921875 -2.140625 C 1.753906 -2.222656 1.566406 -2.316406 1.359375 -2.421875 C 1.160156 -2.523438 0.972656 -2.628906 0.796875 -2.734375 C 0.628906 -2.835938 0.488281 -2.988281 0.375 -3.1875 C 0.257812 -3.382812 0.203125 -3.609375 0.203125 -3.859375 C 0.203125 -4.359375 0.375 -4.734375 0.71875 -4.984375 C 1.0625 -5.242188 1.519531 -5.375 2.09375 -5.375 C 2.3125 -5.375 2.5625 -5.328125 2.84375 -5.234375 C 3.125 -5.148438 3.34375 -5.050781 3.5 -4.9375 L 3 -4.3125 C 2.726562 -4.550781 2.394531 -4.671875 2 -4.671875 C 1.800781 -4.671875 1.625 -4.617188 1.46875 -4.515625 C 1.320312 -4.410156 1.25 -4.265625 1.25 -4.078125 C 1.25 -3.898438 1.304688 -3.75 1.421875 -3.625 C 1.546875 -3.5 1.691406 -3.394531 1.859375 -3.3125 C 2.023438 -3.238281 2.207031 -3.148438 2.40625 -3.046875 C 2.613281 -2.941406 2.800781 -2.832031 2.96875 -2.71875 C 3.144531 -2.613281 3.289062 -2.457031 3.40625 -2.25 C 3.519531 -2.050781 3.578125 -1.816406 3.578125 -1.546875 Z M 3.578125 -1.546875 "/></g></g></g><g fill="#292929" fill-opacity="1"><g transform="translate(11.415186, 7.748523)"><g><path d="M 3.703125 0 L 0.484375 0 L 0.484375 -4.84375 L 0.375 -5.28125 L 3.703125 -5.28125 L 3.703125 -4.5625 L 1.46875 -4.5625 L 1.46875 -3.078125 L 3.171875 -3.078125 L 3.171875 -2.359375 L 1.46875 -2.359375 L 1.46875 -0.71875 L 3.703125 -0.71875 Z M 3.703125 0 "/></g></g></g><g fill="#292929" fill-opacity="1"><g transform="translate(15.266743, 7.748523)"><g><path d="M 4.828125 0.03125 L 4.109375 0.03125 L 1.671875 -3.171875 C 1.628906 -3.222656 1.570312 -3.3125 1.5 -3.4375 C 1.425781 -3.5625 1.382812 -3.632812 1.375 -3.65625 C 1.40625 -3.332031 1.421875 -3.171875 1.421875 -3.171875 L 1.421875 0 L 0.609375 0 L 0.609375 -4.421875 C 0.609375 -4.429688 0.597656 -4.46875 0.578125 -4.53125 C 0.566406 -4.601562 0.550781 -4.671875 0.53125 -4.734375 C 0.519531 -4.804688 0.515625 -4.847656 0.515625 -4.859375 L 1.578125 -4.859375 L 3.78125 -1.953125 C 3.78125 -1.941406 3.878906 -1.78125 4.078125 -1.46875 C 4.046875 -1.832031 4.03125 -2.019531 4.03125 -2.03125 L 4.03125 -4.859375 L 4.828125 -4.859375 Z M 4.03125 -5.984375 C 4.03125 -5.742188 3.960938 -5.539062 3.828125 -5.375 C 3.691406 -5.21875 3.503906 -5.140625 3.265625 -5.140625 C 3.117188 -5.140625 2.945312 -5.1875 2.75 -5.28125 C 2.550781 -5.382812 2.410156 -5.4375 2.328125 -5.4375 C 2.253906 -5.4375 2.1875 -5.414062 2.125 -5.375 C 2.070312 -5.332031 2.046875 -5.28125 2.046875 -5.21875 L 1.578125 -5.21875 C 1.578125 -5.457031 1.644531 -5.65625 1.78125 -5.8125 C 1.914062 -5.976562 2.101562 -6.0625 2.34375 -6.0625 C 2.488281 -6.0625 2.660156 -6.015625 2.859375 -5.921875 C 3.054688 -5.828125 3.195312 -5.78125 3.28125 -5.78125 C 3.34375 -5.78125 3.40625 -5.796875 3.46875 -5.828125 C 3.53125 -5.867188 3.566406 -5.921875 3.578125 -5.984375 Z M 4.03125 -5.984375 "/></g></g></g><g fill="#292929" fill-opacity="1"><g transform="translate(20.310617, 7.748523)"><g><path d="M 5.1875 -2.640625 C 5.1875 -1.835938 4.957031 -1.179688 4.5 -0.671875 C 4.039062 -0.171875 3.421875 0.078125 2.640625 0.078125 C 1.847656 0.078125 1.234375 -0.175781 0.796875 -0.6875 C 0.359375 -1.195312 0.140625 -1.851562 0.140625 -2.65625 C 0.140625 -3.445312 0.359375 -4.09375 0.796875 -4.59375 C 1.242188 -5.101562 1.859375 -5.359375 2.640625 -5.359375 C 3.441406 -5.359375 4.066406 -5.109375 4.515625 -4.609375 C 4.960938 -4.109375 5.1875 -3.453125 5.1875 -2.640625 Z M 4.109375 -2.609375 C 4.109375 -2.859375 4.082031 -3.097656 4.03125 -3.328125 C 3.988281 -3.554688 3.914062 -3.773438 3.8125 -3.984375 C 3.707031 -4.191406 3.550781 -4.359375 3.34375 -4.484375 C 3.144531 -4.609375 2.914062 -4.671875 2.65625 -4.671875 C 2.382812 -4.671875 2.148438 -4.613281 1.953125 -4.5 C 1.753906 -4.382812 1.601562 -4.222656 1.5 -4.015625 C 1.394531 -3.816406 1.316406 -3.601562 1.265625 -3.375 C 1.222656 -3.15625 1.203125 -2.921875 1.203125 -2.671875 C 1.203125 -2.421875 1.222656 -2.179688 1.265625 -1.953125 C 1.316406 -1.722656 1.394531 -1.503906 1.5 -1.296875 C 1.601562 -1.085938 1.753906 -0.921875 1.953125 -0.796875 C 2.160156 -0.671875 2.394531 -0.609375 2.65625 -0.609375 C 2.925781 -0.609375 3.160156 -0.664062 3.359375 -0.78125 C 3.554688 -0.894531 3.707031 -1.050781 3.8125 -1.25 C 3.914062 -1.457031 3.988281 -1.671875 4.03125 -1.890625 C 4.082031 -2.117188 4.109375 -2.359375 4.109375 -2.609375 Z M 4.109375 -2.609375 "/></g></g></g><g fill="#292929" fill-opacity="1"><g transform="translate(25.520693, 7.748523)"><g/></g></g><g fill="#292929" fill-opacity="1"><g transform="translate(27.067106, 7.748523)"><g><path d="M 1.953125 -1.515625 L 0.359375 -1.515625 L 0.359375 -2.203125 L 1.953125 -2.203125 Z M 1.953125 -1.515625 "/></g></g></g><g fill="#292929" fill-opacity="1"><g transform="translate(29.213289, 7.748523)"><g/></g></g><g fill="#292929" fill-opacity="1"><g transform="translate(30.759703, 7.748523)"><g><path d="M 4.078125 -4.5625 L 2.59375 -4.5625 L 2.59375 0 L 1.5625 0 L 1.5625 -4.5625 L 0.09375 -4.5625 L 0.09375 -5.28125 L 4.078125 -5.28125 Z M 4.078125 -4.5625 "/></g></g></g><g fill="#292929" fill-opacity="1"><g transform="translate(34.820822, 7.748523)"><g><path d="M 3.703125 0 L 0.484375 0 L 0.484375 -4.84375 L 0.375 -5.28125 L 3.703125 -5.28125 L 3.703125 -4.5625 L 1.46875 -4.5625 L 1.46875 -3.078125 L 3.171875 -3.078125 L 3.171875 -2.359375 L 1.46875 -2.359375 L 1.46875 -0.71875 L 3.703125 -0.71875 Z M 3.703125 0 "/></g></g></g><g fill="#292929" fill-opacity="1"><g transform="translate(38.672379, 7.748523)"><g><path d="M 4.421875 -0.453125 C 4.117188 -0.265625 3.832031 -0.125 3.5625 -0.03125 C 3.300781 0.0507812 3.003906 0.09375 2.671875 0.09375 C 1.859375 0.09375 1.234375 -0.160156 0.796875 -0.671875 C 0.359375 -1.179688 0.140625 -1.847656 0.140625 -2.671875 C 0.140625 -3.460938 0.367188 -4.113281 0.828125 -4.625 C 1.285156 -5.132812 1.898438 -5.390625 2.671875 -5.390625 C 2.972656 -5.390625 3.285156 -5.34375 3.609375 -5.25 C 3.941406 -5.164062 4.203125 -5.039062 4.390625 -4.875 L 3.875 -4.203125 C 3.738281 -4.347656 3.5625 -4.460938 3.34375 -4.546875 C 3.132812 -4.640625 2.925781 -4.6875 2.71875 -4.6875 C 2.363281 -4.6875 2.066406 -4.582031 1.828125 -4.375 C 1.597656 -4.175781 1.4375 -3.9375 1.34375 -3.65625 C 1.257812 -3.375 1.21875 -3.054688 1.21875 -2.703125 C 1.21875 -2.472656 1.25 -2.238281 1.3125 -2 C 1.375 -1.757812 1.460938 -1.53125 1.578125 -1.3125 C 1.691406 -1.101562 1.847656 -0.929688 2.046875 -0.796875 C 2.253906 -0.660156 2.484375 -0.59375 2.734375 -0.59375 C 3.179688 -0.59375 3.59375 -0.773438 3.96875 -1.140625 Z M 4.421875 -0.453125 "/></g></g></g><g fill="#292929" fill-opacity="1"><g transform="translate(43.065901, 7.748523)"><g><path d="M 4.6875 0.03125 L 3.90625 0.03125 L 1.53125 -3.59375 C 1.375 -3.84375 1.273438 -4.003906 1.234375 -4.078125 C 1.265625 -3.753906 1.28125 -3.59375 1.28125 -3.59375 L 1.28125 0 L 0.46875 0 L 0.46875 -4.84375 C 0.46875 -4.84375 0.457031 -4.875 0.4375 -4.9375 C 0.425781 -5.007812 0.410156 -5.082031 0.390625 -5.15625 C 0.378906 -5.226562 0.375 -5.269531 0.375 -5.28125 L 1.5625 -5.28125 L 3.640625 -2.109375 C 3.710938 -2.003906 3.8125 -1.847656 3.9375 -1.640625 C 3.90625 -2.003906 3.890625 -2.1875 3.890625 -2.1875 L 3.890625 -5.28125 L 4.6875 -5.28125 Z M 4.6875 0.03125 "/></g></g></g><g fill="#292929" fill-opacity="1"><g transform="translate(48.109775, 7.748523)"><g><path d="M 5.1875 -2.640625 C 5.1875 -1.835938 4.957031 -1.179688 4.5 -0.671875 C 4.039062 -0.171875 3.421875 0.078125 2.640625 0.078125 C 1.847656 0.078125 1.234375 -0.175781 0.796875 -0.6875 C 0.359375 -1.195312 0.140625 -1.851562 0.140625 -2.65625 C 0.140625 -3.445312 0.359375 -4.09375 0.796875 -4.59375 C 1.242188 -5.101562 1.859375 -5.359375 2.640625 -5.359375 C 3.441406 -5.359375 4.066406 -5.109375 4.515625 -4.609375 C 4.960938 -4.109375 5.1875 -3.453125 5.1875 -2.640625 Z M 4.109375 -2.609375 C 4.109375 -2.859375 4.082031 -3.097656 4.03125 -3.328125 C 3.988281 -3.554688 3.914062 -3.773438 3.8125 -3.984375 C 3.707031 -4.191406 3.550781 -4.359375 3.34375 -4.484375 C 3.144531 -4.609375 2.914062 -4.671875 2.65625 -4.671875 C 2.382812 -4.671875 2.148438 -4.613281 1.953125 -4.5 C 1.753906 -4.382812 1.601562 -4.222656 1.5 -4.015625 C 1.394531 -3.816406 1.316406 -3.601562 1.265625 -3.375 C 1.222656 -3.15625 1.203125 -2.921875 1.203125 -2.671875 C 1.203125 -2.421875 1.222656 -2.179688 1.265625 -1.953125 C 1.316406 -1.722656 1.394531 -1.503906 1.5 -1.296875 C 1.601562 -1.085938 1.753906 -0.921875 1.953125 -0.796875 C 2.160156 -0.671875 2.394531 -0.609375 2.65625 -0.609375 C 2.925781 -0.609375 3.160156 -0.664062 3.359375 -0.78125 C 3.554688 -0.894531 3.707031 -1.050781 3.8125 -1.25 C 3.914062 -1.457031 3.988281 -1.671875 4.03125 -1.890625 C 4.082031 -2.117188 4.109375 -2.359375 4.109375 -2.609375 Z M 4.109375 -2.609375 "/></g></g></g><g fill="#292929" fill-opacity="1"><g transform="translate(53.31985, 7.748523)"><g><path d="M 3.546875 0 L 0.46875 0 L 0.46875 -4.84375 C 0.46875 -4.84375 0.460938 -4.875 0.453125 -4.9375 C 0.441406 -5.007812 0.425781 -5.082031 0.40625 -5.15625 C 0.382812 -5.226562 0.375 -5.269531 0.375 -5.28125 L 1.484375 -5.28125 L 1.484375 -0.71875 L 3.546875 -0.71875 Z M 3.546875 0 "/></g></g></g><g fill="#292929" fill-opacity="1"><g transform="translate(56.918495, 7.748523)"><g><path d="M 5.1875 -2.640625 C 5.1875 -1.835938 4.957031 -1.179688 4.5 -0.671875 C 4.039062 -0.171875 3.421875 0.078125 2.640625 0.078125 C 1.847656 0.078125 1.234375 -0.175781 0.796875 -0.6875 C 0.359375 -1.195312 0.140625 -1.851562 0.140625 -2.65625 C 0.140625 -3.445312 0.359375 -4.09375 0.796875 -4.59375 C 1.242188 -5.101562 1.859375 -5.359375 2.640625 -5.359375 C 3.441406 -5.359375 4.066406 -5.109375 4.515625 -4.609375 C 4.960938 -4.109375 5.1875 -3.453125 5.1875 -2.640625 Z M 4.109375 -2.609375 C 4.109375 -2.859375 4.082031 -3.097656 4.03125 -3.328125 C 3.988281 -3.554688 3.914062 -3.773438 3.8125 -3.984375 C 3.707031 -4.191406 3.550781 -4.359375 3.34375 -4.484375 C 3.144531 -4.609375 2.914062 -4.671875 2.65625 -4.671875 C 2.382812 -4.671875 2.148438 -4.613281 1.953125 -4.5 C 1.753906 -4.382812 1.601562 -4.222656 1.5 -4.015625 C 1.394531 -3.816406 1.316406 -3.601562 1.265625 -3.375 C 1.222656 -3.15625 1.203125 -2.921875 1.203125 -2.671875 C 1.203125 -2.421875 1.222656 -2.179688 1.265625 -1.953125 C 1.316406 -1.722656 1.394531 -1.503906 1.5 -1.296875 C 1.601562 -1.085938 1.753906 -0.921875 1.953125 -0.796875 C 2.160156 -0.671875 2.394531 -0.609375 2.65625 -0.609375 C 2.925781 -0.609375 3.160156 -0.664062 3.359375 -0.78125 C 3.554688 -0.894531 3.707031 -1.050781 3.8125 -1.25 C 3.914062 -1.457031 3.988281 -1.671875 4.03125 -1.890625 C 4.082031 -2.117188 4.109375 -2.359375 4.109375 -2.609375 Z M 4.109375 -2.609375 "/></g></g></g><g fill="#292929" fill-opacity="1"><g transform="translate(62.12857, 7.748523)"><g><path d="M 4.828125 0 L 4.3125 0 L 4.0625 -0.546875 C 3.820312 -0.316406 3.582031 -0.15625 3.34375 -0.0625 C 3.101562 0.03125 2.816406 0.078125 2.484375 0.078125 C 1.734375 0.078125 1.15625 -0.171875 0.75 -0.671875 C 0.351562 -1.171875 0.15625 -1.8125 0.15625 -2.59375 C 0.15625 -3.4375 0.382812 -4.109375 0.84375 -4.609375 C 1.3125 -5.117188 1.960938 -5.375 2.796875 -5.375 C 3.117188 -5.375 3.457031 -5.320312 3.8125 -5.21875 C 4.175781 -5.125 4.457031 -4.984375 4.65625 -4.796875 L 4.125 -4.203125 C 3.863281 -4.390625 3.648438 -4.515625 3.484375 -4.578125 C 3.316406 -4.648438 3.085938 -4.6875 2.796875 -4.6875 C 2.410156 -4.6875 2.09375 -4.585938 1.84375 -4.390625 C 1.601562 -4.191406 1.4375 -3.945312 1.34375 -3.65625 C 1.25 -3.363281 1.203125 -3.03125 1.203125 -2.65625 C 1.203125 -2.414062 1.226562 -2.179688 1.28125 -1.953125 C 1.332031 -1.722656 1.410156 -1.503906 1.515625 -1.296875 C 1.628906 -1.097656 1.785156 -0.929688 1.984375 -0.796875 C 2.179688 -0.671875 2.40625 -0.609375 2.65625 -0.609375 C 3 -0.609375 3.273438 -0.707031 3.484375 -0.90625 C 3.691406 -1.113281 3.796875 -1.390625 3.796875 -1.734375 L 3.796875 -2.1875 L 2.703125 -2.1875 L 2.796875 -2.8125 L 4.796875 -2.8125 C 4.785156 -2.226562 4.78125 -1.785156 4.78125 -1.484375 C 4.78125 -0.898438 4.796875 -0.40625 4.828125 0 Z M 4.828125 0 "/></g></g></g><g fill="#292929" fill-opacity="1"><g transform="translate(67.121861, 7.748523)"><g><path d="M 1.46875 0 L 0.46875 0 L 0.46875 -4.84375 C 0.46875 -4.84375 0.457031 -4.875 0.4375 -4.9375 C 0.425781 -5.007812 0.410156 -5.082031 0.390625 -5.15625 C 0.378906 -5.226562 0.375 -5.269531 0.375 -5.28125 L 1.46875 -5.28125 Z M 1.46875 0 "/></g></g></g><g fill="#292929" fill-opacity="1"><g transform="translate(68.942864, 7.748523)"><g><path d="M 4.546875 0 L 3.46875 0 L 2.953125 -1.515625 L 1.390625 -1.515625 L 0.859375 0 L 0.015625 0 L 1.890625 -5.28125 L 2.671875 -5.28125 Z M 2.71875 -2.21875 C 2.488281 -2.925781 2.304688 -3.53125 2.171875 -4.03125 C 2.003906 -3.425781 1.828125 -2.820312 1.640625 -2.21875 Z M 2.71875 -2.21875 "/></g></g></g><g fill="#292929" fill-opacity="1"><g transform="translate(73.386968, 7.748523)"><g/></g></g><g fill="#292929" fill-opacity="1"><g transform="translate(74.933382, 7.748523)"><g><path d="M 1.953125 -1.515625 L 0.359375 -1.515625 L 0.359375 -2.203125 L 1.953125 -2.203125 Z M 1.953125 -1.515625 "/></g></g></g><g fill="#292929" fill-opacity="1"><g transform="translate(77.079565, 7.748523)"><g/></g></g><g fill="#292929" fill-opacity="1"><g transform="translate(78.625978, 7.748523)"><g><path d="M 1.46875 0 L 0.46875 0 L 0.46875 -4.84375 C 0.46875 -4.84375 0.457031 -4.875 0.4375 -4.9375 C 0.425781 -5.007812 0.410156 -5.082031 0.390625 -5.15625 C 0.378906 -5.226562 0.375 -5.269531 0.375 -5.28125 L 1.46875 -5.28125 Z M 1.46875 0 "/></g></g></g><g fill="#292929" fill-opacity="1"><g transform="translate(80.446981, 7.748523)"><g><path d="M 4.6875 0.03125 L 3.90625 0.03125 L 1.53125 -3.59375 C 1.375 -3.84375 1.273438 -4.003906 1.234375 -4.078125 C 1.265625 -3.753906 1.28125 -3.59375 1.28125 -3.59375 L 1.28125 0 L 0.46875 0 L 0.46875 -4.84375 C 0.46875 -4.84375 0.457031 -4.875 0.4375 -4.9375 C 0.425781 -5.007812 0.410156 -5.082031 0.390625 -5.15625 C 0.378906 -5.226562 0.375 -5.269531 0.375 -5.28125 L 1.5625 -5.28125 L 3.640625 -2.109375 C 3.710938 -2.003906 3.8125 -1.847656 3.9375 -1.640625 C 3.90625 -2.003906 3.890625 -2.1875 3.890625 -2.1875 L 3.890625 -5.28125 L 4.6875 -5.28125 Z M 4.6875 0.03125 "/></g></g></g><g fill="#292929" fill-opacity="1"><g transform="translate(85.490855, 7.748523)"><g><path d="M 4.6875 0.03125 L 3.90625 0.03125 L 1.53125 -3.59375 C 1.375 -3.84375 1.273438 -4.003906 1.234375 -4.078125 C 1.265625 -3.753906 1.28125 -3.59375 1.28125 -3.59375 L 1.28125 0 L 0.46875 0 L 0.46875 -4.84375 C 0.46875 -4.84375 0.457031 -4.875 0.4375 -4.9375 C 0.425781 -5.007812 0.410156 -5.082031 0.390625 -5.15625 C 0.378906 -5.226562 0.375 -5.269531 0.375 -5.28125 L 1.5625 -5.28125 L 3.640625 -2.109375 C 3.710938 -2.003906 3.8125 -1.847656 3.9375 -1.640625 C 3.90625 -2.003906 3.890625 -2.1875 3.890625 -2.1875 L 3.890625 -5.28125 L 4.6875 -5.28125 Z M 4.6875 0.03125 "/></g></g></g><g fill="#292929" fill-opacity="1"><g transform="translate(90.534729, 7.748523)"><g><path d="M 5.1875 -2.640625 C 5.1875 -1.835938 4.957031 -1.179688 4.5 -0.671875 C 4.039062 -0.171875 3.421875 0.078125 2.640625 0.078125 C 1.847656 0.078125 1.234375 -0.175781 0.796875 -0.6875 C 0.359375 -1.195312 0.140625 -1.851562 0.140625 -2.65625 C 0.140625 -3.445312 0.359375 -4.09375 0.796875 -4.59375 C 1.242188 -5.101562 1.859375 -5.359375 2.640625 -5.359375 C 3.441406 -5.359375 4.066406 -5.109375 4.515625 -4.609375 C 4.960938 -4.109375 5.1875 -3.453125 5.1875 -2.640625 Z M 4.109375 -2.609375 C 4.109375 -2.859375 4.082031 -3.097656 4.03125 -3.328125 C 3.988281 -3.554688 3.914062 -3.773438 3.8125 -3.984375 C 3.707031 -4.191406 3.550781 -4.359375 3.34375 -4.484375 C 3.144531 -4.609375 2.914062 -4.671875 2.65625 -4.671875 C 2.382812 -4.671875 2.148438 -4.613281 1.953125 -4.5 C 1.753906 -4.382812 1.601562 -4.222656 1.5 -4.015625 C 1.394531 -3.816406 1.316406 -3.601562 1.265625 -3.375 C 1.222656 -3.15625 1.203125 -2.921875 1.203125 -2.671875 C 1.203125 -2.421875 1.222656 -2.179688 1.265625 -1.953125 C 1.316406 -1.722656 1.394531 -1.503906 1.5 -1.296875 C 1.601562 -1.085938 1.753906 -0.921875 1.953125 -0.796875 C 2.160156 -0.671875 2.394531 -0.609375 2.65625 -0.609375 C 2.925781 -0.609375 3.160156 -0.664062 3.359375 -0.78125 C 3.554688 -0.894531 3.707031 -1.050781 3.8125 -1.25 C 3.914062 -1.457031 3.988281 -1.671875 4.03125 -1.890625 C 4.082031 -2.117188 4.109375 -2.359375 4.109375 -2.609375 Z M 4.109375 -2.609375 "/></g></g></g><g fill="#292929" fill-opacity="1"><g transform="translate(95.744804, 7.748523)"><g><path d="M 4.359375 -5.28125 L 2.53125 0.015625 L 1.8125 0.015625 L 0 -5.28125 L 1.046875 -5.28125 C 1.703125 -3.375 2.050781 -2.367188 2.09375 -2.265625 C 2.15625 -2.046875 2.222656 -1.769531 2.296875 -1.4375 C 2.359375 -1.757812 2.453125 -2.085938 2.578125 -2.421875 L 3.546875 -5.28125 Z M 4.359375 -5.28125 "/></g></g></g><g fill="#292929" fill-opacity="1"><g transform="translate(99.986578, 7.748523)"><g><path d="M 4.546875 0 L 3.46875 0 L 2.953125 -1.515625 L 1.390625 -1.515625 L 0.859375 0 L 0.015625 0 L 1.890625 -5.28125 L 2.671875 -5.28125 Z M 2.71875 -2.21875 C 2.488281 -2.925781 2.304688 -3.53125 2.171875 -4.03125 C 2.003906 -3.425781 1.828125 -2.820312 1.640625 -2.21875 Z M 2.71875 -2.21875 "/></g></g></g><g fill="#292929" fill-opacity="1"><g transform="translate(104.430683, 7.748523)"><g><path d="M 4.421875 -0.453125 C 4.117188 -0.265625 3.832031 -0.125 3.5625 -0.03125 C 3.300781 0.0507812 3.003906 0.09375 2.671875 0.09375 C 1.859375 0.09375 1.234375 -0.160156 0.796875 -0.671875 C 0.359375 -1.179688 0.140625 -1.847656 0.140625 -2.671875 C 0.140625 -3.460938 0.367188 -4.113281 0.828125 -4.625 C 1.285156 -5.132812 1.898438 -5.390625 2.671875 -5.390625 C 2.972656 -5.390625 3.285156 -5.34375 3.609375 -5.25 C 3.941406 -5.164062 4.203125 -5.039062 4.390625 -4.875 L 3.875 -4.203125 C 3.738281 -4.347656 3.5625 -4.460938 3.34375 -4.546875 C 3.132812 -4.640625 2.925781 -4.6875 2.71875 -4.6875 C 2.363281 -4.6875 2.066406 -4.582031 1.828125 -4.375 C 1.597656 -4.175781 1.4375 -3.9375 1.34375 -3.65625 C 1.257812 -3.375 1.21875 -3.054688 1.21875 -2.703125 C 1.21875 -2.472656 1.25 -2.238281 1.3125 -2 C 1.375 -1.757812 1.460938 -1.53125 1.578125 -1.3125 C 1.691406 -1.101562 1.847656 -0.929688 2.046875 -0.796875 C 2.253906 -0.660156 2.484375 -0.59375 2.734375 -0.59375 C 3.179688 -0.59375 3.59375 -0.773438 3.96875 -1.140625 Z M 4.421875 -0.453125 "/></g></g></g><g fill="#292929" fill-opacity="1"><g transform="translate(108.824205, 7.748523)"><g><path d="M 1.46875 0 L 0.46875 0 L 0.46875 -4.84375 C 0.46875 -4.84375 0.457031 -4.875 0.4375 -4.9375 C 0.425781 -5.007812 0.410156 -5.082031 0.390625 -5.15625 C 0.378906 -5.226562 0.375 -5.269531 0.375 -5.28125 L 1.46875 -5.28125 Z M 1.46875 0 "/></g></g></g><g fill="#292929" fill-opacity="1"><g transform="translate(110.645207, 7.748523)"><g><path d="M 5.1875 -2.640625 C 5.1875 -1.835938 4.957031 -1.179688 4.5 -0.671875 C 4.039062 -0.171875 3.421875 0.078125 2.640625 0.078125 C 1.847656 0.078125 1.234375 -0.175781 0.796875 -0.6875 C 0.359375 -1.195312 0.140625 -1.851562 0.140625 -2.65625 C 0.140625 -3.445312 0.359375 -4.09375 0.796875 -4.59375 C 1.242188 -5.101562 1.859375 -5.359375 2.640625 -5.359375 C 3.441406 -5.359375 4.066406 -5.109375 4.515625 -4.609375 C 4.960938 -4.109375 5.1875 -3.453125 5.1875 -2.640625 Z M 4.109375 -2.609375 C 4.109375 -2.859375 4.082031 -3.097656 4.03125 -3.328125 C 3.988281 -3.554688 3.914062 -3.773438 3.8125 -3.984375 C 3.707031 -4.191406 3.550781 -4.359375 3.34375 -4.484375 C 3.144531 -4.609375 2.914062 -4.671875 2.65625 -4.671875 C 2.382812 -4.671875 2.148438 -4.613281 1.953125 -4.5 C 1.753906 -4.382812 1.601562 -4.222656 1.5 -4.015625 C 1.394531 -3.816406 1.316406 -3.601562 1.265625 -3.375 C 1.222656 -3.15625 1.203125 -2.921875 1.203125 -2.671875 C 1.203125 -2.421875 1.222656 -2.179688 1.265625 -1.953125 C 1.316406 -1.722656 1.394531 -1.503906 1.5 -1.296875 C 1.601562 -1.085938 1.753906 -0.921875 1.953125 -0.796875 C 2.160156 -0.671875 2.394531 -0.609375 2.65625 -0.609375 C 2.925781 -0.609375 3.160156 -0.664062 3.359375 -0.78125 C 3.554688 -0.894531 3.707031 -1.050781 3.8125 -1.25 C 3.914062 -1.457031 3.988281 -1.671875 4.03125 -1.890625 C 4.082031 -2.117188 4.109375 -2.359375 4.109375 -2.609375 Z M 4.109375 -2.609375 "/></g></g></g><g fill="#292929" fill-opacity="1"><g transform="translate(115.855283, 7.748523)"><g><path d="M 4.6875 0.03125 L 3.90625 0.03125 L 1.53125 -3.59375 C 1.375 -3.84375 1.273438 -4.003906 1.234375 -4.078125 C 1.265625 -3.753906 1.28125 -3.59375 1.28125 -3.59375 L 1.28125 0 L 0.46875 0 L 0.46875 -4.84375 C 0.46875 -4.84375 0.457031 -4.875 0.4375 -4.9375 C 0.425781 -5.007812 0.410156 -5.082031 0.390625 -5.15625 C 0.378906 -5.226562 0.375 -5.269531 0.375 -5.28125 L 1.5625 -5.28125 L 3.640625 -2.109375 C 3.710938 -2.003906 3.8125 -1.847656 3.9375 -1.640625 C 3.90625 -2.003906 3.890625 -2.1875 3.890625 -2.1875 L 3.890625 -5.28125 L 4.6875 -5.28125 Z M 4.6875 0.03125 "/></g></g></g></g></g></svg>