<svg xmlns="http://www.w3.org/2000/svg" xmlns:xlink="http://www.w3.org/1999/xlink" width="500" zoomAndPan="magnify" viewBox="0 0 375 187.499995" height="250" preserveAspectRatio="xMidYMid meet" version="1.0"><defs><g/><clipPath id="f8163483f7"><path d="M 73 84 L 82.578125 84 L 82.578125 95 L 73 95 Z M 73 84 " clip-rule="nonzero"/></clipPath><clipPath id="736a872033"><path d="M 12.265625 45 L 82.578125 45 L 82.578125 155 L 12.265625 155 Z M 12.265625 45 " clip-rule="nonzero"/></clipPath><clipPath id="918661db31"><rect x="0" width="285" y="0" height="155"/></clipPath><clipPath id="19d75e52ff"><rect x="0" width="222" y="0" height="33"/></clipPath></defs><path fill="#ffffff" d="M 41.949219 89.6875 C 41.949219 92.296875 44.0625 94.410156 46.671875 94.410156 C 49.28125 94.410156 51.394531 92.296875 51.394531 89.6875 C 51.394531 87.082031 49.28125 84.96875 46.671875 84.96875 C 44.0625 84.96875 41.949219 87.082031 41.949219 89.6875 " fill-opacity="1" fill-rule="nonzero"/><path fill="#ffffff" d="M 57.558594 89.6875 C 57.558594 92.296875 59.671875 94.410156 62.28125 94.410156 C 64.886719 94.410156 67.003906 92.296875 67.003906 89.6875 C 67.003906 87.082031 64.886719 84.96875 62.28125 84.96875 C 59.671875 84.96875 57.558594 87.082031 57.558594 89.6875 " fill-opacity="1" fill-rule="nonzero"/><g clip-path="url(#f8163483f7)"><path fill="#ffffff" d="M 77.886719 84.96875 C 75.28125 84.96875 73.167969 87.082031 73.167969 89.6875 C 73.167969 92.296875 75.28125 94.410156 77.886719 94.410156 C 80.496094 94.410156 82.609375 92.296875 82.609375 89.6875 C 82.609375 87.082031 80.496094 84.96875 77.886719 84.96875 " fill-opacity="1" fill-rule="nonzero"/></g><g clip-path="url(#736a872033)"><path fill="#ffffff" d="M 77.632812 114.988281 C 73.835938 117.175781 69.523438 118.574219 64.925781 118.964844 C 46.355469 120.535156 30.527344 105.136719 31.59375 86.53125 C 32.515625 70.371094 45.910156 57.554688 62.300781 57.554688 C 67.886719 57.554688 73.125 59.042969 77.640625 61.648438 C 79.660156 62.8125 82.179688 61.351562 82.179688 59.019531 L 82.179688 48.0625 C 82.179688 46.390625 80.820312 45.03125 79.148438 45.03125 L 15.292969 45.03125 C 13.621094 45.03125 12.261719 46.390625 12.261719 48.0625 L 12.261719 151.78125 C 12.261719 154.273438 15.117188 155.691406 17.101562 154.183594 L 46.058594 132.175781 C 46.578125 131.777344 47.222656 131.5625 47.878906 131.5625 L 79.148438 131.5625 C 80.820312 131.5625 82.179688 130.207031 82.179688 128.53125 L 82.179688 117.609375 C 82.179688 115.277344 79.65625 113.824219 77.632812 114.988281 " fill-opacity="1" fill-rule="nonzero"/></g><g transform="matrix(1, 0, 0, 1, 78, 15)"><g clip-path="url(#918661db31)"><g fill="#ffffff" fill-opacity="1"><g transform="translate(0.53106, 116.477547)"><g><path d="M 62.59375 -86.9375 L 86.9375 -86.9375 C 87.851562 -86.9375 88.640625 -86.601562 89.296875 -85.9375 C 89.960938 -85.28125 90.296875 -84.5 90.296875 -83.59375 L 90.296875 -3.359375 C 90.296875 -2.441406 89.960938 -1.648438 89.296875 -0.984375 C 88.640625 -0.328125 87.851562 0 86.9375 0 L 62.59375 0 C 61.6875 0 60.898438 -0.328125 60.234375 -0.984375 C 59.578125 -1.648438 59.25 -2.441406 59.25 -3.359375 L 59.25 -30.1875 L 39.125 -30.1875 L 39.125 -3.359375 C 39.125 -2.441406 38.789062 -1.648438 38.125 -0.984375 C 37.46875 -0.328125 36.679688 0 35.765625 0 L 11.421875 0 C 10.515625 0 9.726562 -0.304688 9.0625 -0.921875 C 8.40625 -1.546875 8.078125 -2.359375 8.078125 -3.359375 L 8.078125 -83.59375 C 8.078125 -84.5 8.40625 -85.28125 9.0625 -85.9375 C 9.726562 -86.601562 10.515625 -86.9375 11.421875 -86.9375 L 35.765625 -86.9375 C 36.679688 -86.9375 37.46875 -86.601562 38.125 -85.9375 C 38.789062 -85.28125 39.125 -84.5 39.125 -83.59375 L 39.125 -57.5 L 59.25 -57.5 L 59.25 -83.59375 C 59.25 -84.5 59.578125 -85.28125 60.234375 -85.9375 C 60.898438 -86.601562 61.6875 -86.9375 62.59375 -86.9375 Z M 62.59375 -86.9375 "/></g></g></g><g fill="#ffffff" fill-opacity="1"><g transform="translate(98.887676, 116.477547)"><g><path d="M 35.28125 -86.9375 L 62.21875 -86.9375 C 65.207031 -86.9375 67.070312 -85.570312 67.8125 -82.84375 L 95.515625 -3.609375 C 95.597656 -3.359375 95.640625 -2.960938 95.640625 -2.421875 C 95.640625 -1.878906 95.367188 -1.335938 94.828125 -0.796875 C 94.285156 -0.265625 93.644531 0 92.90625 0 L 69.921875 0 C 67.441406 0 65.828125 -1.035156 65.078125 -3.109375 L 62.109375 -11.296875 L 35.390625 -11.296875 L 32.421875 -3.109375 C 31.671875 -1.035156 30.054688 0 27.578125 0 L 4.59375 0 C 3.851562 0 3.210938 -0.265625 2.671875 -0.796875 C 2.128906 -1.335938 1.859375 -1.878906 1.859375 -2.421875 C 1.859375 -2.960938 1.898438 -3.359375 1.984375 -3.609375 L 29.6875 -82.84375 C 30.425781 -85.570312 32.289062 -86.9375 35.28125 -86.9375 Z M 41.734375 -35.515625 L 55.765625 -35.515625 L 48.6875 -58.625 Z M 41.734375 -35.515625 "/></g></g></g><g fill="#ffffff" fill-opacity="1"><g transform="translate(196.374987, 116.477547)"><g><path d="M 7.078125 -86.9375 L 79.859375 -86.9375 C 80.773438 -86.9375 81.5625 -86.601562 82.21875 -85.9375 C 82.882812 -85.28125 83.21875 -84.5 83.21875 -83.59375 L 83.21875 -63.59375 C 83.21875 -62.675781 82.882812 -61.882812 82.21875 -61.21875 C 81.5625 -60.5625 80.773438 -60.234375 79.859375 -60.234375 L 59.25 -60.234375 L 59.25 -3.359375 C 59.25 -2.441406 58.914062 -1.648438 58.25 -0.984375 C 57.582031 -0.328125 56.796875 0 55.890625 0 L 31.046875 0 C 30.140625 0 29.351562 -0.328125 28.6875 -0.984375 C 28.03125 -1.648438 27.703125 -2.441406 27.703125 -3.359375 L 27.703125 -60.234375 L 7.078125 -60.234375 C 6.171875 -60.234375 5.382812 -60.5625 4.71875 -61.21875 C 4.050781 -61.882812 3.71875 -62.675781 3.71875 -63.59375 L 3.71875 -83.59375 C 3.71875 -84.5 4.050781 -85.28125 4.71875 -85.9375 C 5.382812 -86.601562 6.171875 -86.9375 7.078125 -86.9375 Z M 7.078125 -86.9375 "/></g></g></g></g></g><g transform="matrix(1, 0, 0, 1, 87, 135)"><g clip-path="url(#19d75e52ff)"><g fill="#ffffff" fill-opacity="1"><g transform="translate(0.760809, 25.16118)"><g><path d="M 9.109375 -16.84375 C 10.390625 -16.84375 11.578125 -16.648438 12.671875 -16.265625 C 13.765625 -15.890625 14.738281 -15.222656 15.59375 -14.265625 C 15.9375 -13.867188 16.085938 -13.488281 16.046875 -13.125 C 16.003906 -12.757812 15.835938 -12.460938 15.546875 -12.234375 C 15.265625 -12.003906 14.925781 -11.898438 14.53125 -11.921875 C 14.144531 -11.941406 13.78125 -12.132812 13.4375 -12.5 C 12.789062 -13.207031 12.109375 -13.664062 11.390625 -13.875 C 10.671875 -14.082031 9.898438 -14.1875 9.078125 -14.1875 C 7.984375 -14.1875 7.023438 -13.945312 6.203125 -13.46875 C 5.378906 -12.988281 4.738281 -12.320312 4.28125 -11.46875 C 3.820312 -10.625 3.59375 -9.628906 3.59375 -8.484375 C 3.59375 -7.265625 3.828125 -6.195312 4.296875 -5.28125 C 4.765625 -4.363281 5.414062 -3.648438 6.25 -3.140625 C 7.09375 -2.640625 8.082031 -2.390625 9.21875 -2.390625 C 10.03125 -2.390625 10.84375 -2.597656 11.65625 -3.015625 C 12.476562 -3.429688 13.128906 -3.9375 13.609375 -4.53125 C 13.960938 -4.945312 14.34375 -5.1875 14.75 -5.25 C 15.15625 -5.3125 15.507812 -5.238281 15.8125 -5.03125 C 16.113281 -4.832031 16.296875 -4.550781 16.359375 -4.1875 C 16.421875 -3.820312 16.296875 -3.414062 15.984375 -2.96875 C 15.515625 -2.3125 14.90625 -1.738281 14.15625 -1.25 C 13.414062 -0.757812 12.609375 -0.382812 11.734375 -0.125 C 10.867188 0.132812 10.007812 0.265625 9.15625 0.265625 C 7.4375 0.265625 5.9375 -0.0976562 4.65625 -0.828125 C 3.375 -1.554688 2.375 -2.578125 1.65625 -3.890625 C 0.945312 -5.203125 0.59375 -6.734375 0.59375 -8.484375 C 0.59375 -10.171875 0.96875 -11.640625 1.71875 -12.890625 C 2.46875 -14.140625 3.488281 -15.109375 4.78125 -15.796875 C 6.070312 -16.492188 7.515625 -16.84375 9.109375 -16.84375 Z M 9.109375 -16.84375 "/></g></g></g><g fill="#ffffff" fill-opacity="1"><g transform="translate(18.825935, 25.16118)"><g><path d="M 15.015625 -2.546875 C 15.421875 -2.128906 15.613281 -1.722656 15.59375 -1.328125 C 15.570312 -0.941406 15.421875 -0.625 15.140625 -0.375 C 14.867188 -0.125 14.546875 0.00390625 14.171875 0.015625 C 13.796875 0.0234375 13.445312 -0.144531 13.125 -0.5 L 8.453125 -5.46875 L 4.53125 -5.46875 L 4.53125 -1.359375 C 4.53125 -0.921875 4.367188 -0.582031 4.046875 -0.34375 C 3.722656 -0.113281 3.378906 0 3.015625 0 C 2.640625 0 2.296875 -0.109375 1.984375 -0.328125 C 1.671875 -0.554688 1.515625 -0.890625 1.515625 -1.328125 L 1.515625 -15.234375 C 1.515625 -15.628906 1.65625 -15.953125 1.9375 -16.203125 C 2.226562 -16.453125 2.585938 -16.578125 3.015625 -16.578125 L 8.828125 -16.578125 C 10.390625 -16.578125 11.691406 -16.328125 12.734375 -15.828125 C 13.773438 -15.328125 14.554688 -14.648438 15.078125 -13.796875 C 15.597656 -12.941406 15.859375 -11.992188 15.859375 -10.953125 C 15.859375 -9.742188 15.53125 -8.679688 14.875 -7.765625 C 14.226562 -6.859375 13.234375 -6.210938 11.890625 -5.828125 Z M 4.53125 -7.984375 L 8.84375 -7.984375 C 10.238281 -7.984375 11.253906 -8.273438 11.890625 -8.859375 C 12.535156 -9.441406 12.84375 -10.132812 12.8125 -10.9375 C 12.789062 -11.800781 12.429688 -12.519531 11.734375 -13.09375 C 11.046875 -13.664062 10.082031 -13.953125 8.84375 -13.953125 L 4.53125 -13.953125 Z M 4.53125 -7.984375 "/></g></g></g><g fill="#ffffff" fill-opacity="1"><g transform="translate(36.630759, 25.16118)"><g><path d="M 3.078125 -16.578125 C 3.628906 -16.578125 4.070312 -16.316406 4.40625 -15.796875 L 9.84375 -7.28125 L 15.25 -15.828125 C 15.425781 -16.085938 15.640625 -16.273438 15.890625 -16.390625 C 16.140625 -16.515625 16.390625 -16.578125 16.640625 -16.578125 C 17.015625 -16.578125 17.347656 -16.453125 17.640625 -16.203125 C 17.941406 -15.953125 18.09375 -15.59375 18.09375 -15.125 L 18.09375 -1.359375 C 18.09375 -0.898438 17.925781 -0.554688 17.59375 -0.328125 C 17.269531 -0.109375 16.925781 0 16.5625 0 C 16.175781 0 15.832031 -0.109375 15.53125 -0.328125 C 15.226562 -0.554688 15.078125 -0.898438 15.078125 -1.359375 L 15.078125 -10.125 L 11.1875 -4.0625 C 11.050781 -3.800781 10.859375 -3.609375 10.609375 -3.484375 C 10.359375 -3.367188 10.101562 -3.3125 9.84375 -3.3125 C 9.582031 -3.3125 9.316406 -3.382812 9.046875 -3.53125 C 8.773438 -3.675781 8.570312 -3.878906 8.4375 -4.140625 L 4.609375 -10.09375 L 4.609375 -1.359375 C 4.609375 -0.898438 4.445312 -0.554688 4.125 -0.328125 C 3.800781 -0.109375 3.457031 0 3.09375 0 C 2.71875 0 2.375 -0.109375 2.0625 -0.328125 C 1.75 -0.554688 1.59375 -0.898438 1.59375 -1.359375 L 1.59375 -15.09375 C 1.59375 -15.550781 1.742188 -15.910156 2.046875 -16.171875 C 2.347656 -16.441406 2.691406 -16.578125 3.078125 -16.578125 Z M 3.078125 -16.578125 "/></g></g></g><g fill="#ffffff" fill-opacity="1"><g transform="translate(58.209948, 25.16118)"><g/></g></g><g fill="#ffffff" fill-opacity="1"><g transform="translate(66.01921, 25.16118)"><g><path d="M 12.546875 -15.3125 C 12.546875 -15.726562 12.710938 -16.039062 13.046875 -16.25 C 13.390625 -16.46875 13.753906 -16.578125 14.140625 -16.578125 C 14.535156 -16.578125 14.882812 -16.476562 15.1875 -16.28125 C 15.488281 -16.082031 15.640625 -15.757812 15.640625 -15.3125 L 15.640625 -1.5625 C 15.640625 -1.039062 15.457031 -0.648438 15.09375 -0.390625 C 14.726562 -0.128906 14.332031 0 13.90625 0 C 13.601562 0 13.304688 -0.0664062 13.015625 -0.203125 C 12.734375 -0.347656 12.507812 -0.53125 12.34375 -0.75 L 4.375 -11.015625 L 4.484375 -9.546875 L 4.484375 -1.375 C 4.484375 -0.894531 4.320312 -0.546875 4 -0.328125 C 3.675781 -0.109375 3.320312 0 2.9375 0 C 2.539062 0 2.179688 -0.109375 1.859375 -0.328125 C 1.535156 -0.546875 1.375 -0.894531 1.375 -1.375 L 1.375 -15 C 1.375 -15.519531 1.535156 -15.910156 1.859375 -16.171875 C 2.179688 -16.441406 2.550781 -16.578125 2.96875 -16.578125 C 3.300781 -16.578125 3.582031 -16.507812 3.8125 -16.375 C 4.050781 -16.25 4.273438 -16.054688 4.484375 -15.796875 L 12.65625 -5.1875 L 12.546875 -6.921875 Z M 12.546875 -15.3125 "/></g></g></g><g fill="#ffffff" fill-opacity="1"><g transform="translate(84.709054, 25.16118)"><g><path d="M 15.984375 -4.015625 C 15.984375 -3.835938 15.957031 -3.648438 15.90625 -3.453125 C 15.851562 -3.265625 15.75 -3.085938 15.59375 -2.921875 C 15.070312 -2.304688 14.4375 -1.753906 13.6875 -1.265625 C 12.945312 -0.785156 12.160156 -0.410156 11.328125 -0.140625 C 10.492188 0.128906 9.664062 0.265625 8.84375 0.265625 C 7.132812 0.265625 5.648438 -0.0976562 4.390625 -0.828125 C 3.128906 -1.554688 2.15625 -2.578125 1.46875 -3.890625 C 0.78125 -5.203125 0.457031 -6.71875 0.5 -8.4375 C 0.5 -10.113281 0.847656 -11.582031 1.546875 -12.84375 C 2.253906 -14.101562 3.238281 -15.082031 4.5 -15.78125 C 5.769531 -16.488281 7.242188 -16.84375 8.921875 -16.84375 C 10.066406 -16.84375 11.195312 -16.632812 12.3125 -16.21875 C 13.4375 -15.800781 14.382812 -15.1875 15.15625 -14.375 C 15.519531 -13.988281 15.679688 -13.601562 15.640625 -13.21875 C 15.609375 -12.84375 15.445312 -12.535156 15.15625 -12.296875 C 14.875 -12.066406 14.53125 -11.957031 14.125 -11.96875 C 13.71875 -11.988281 13.320312 -12.195312 12.9375 -12.59375 C 12.382812 -13.1875 11.753906 -13.613281 11.046875 -13.875 C 10.347656 -14.132812 9.640625 -14.265625 8.921875 -14.265625 C 7.847656 -14.265625 6.898438 -14.015625 6.078125 -13.515625 C 5.253906 -13.023438 4.613281 -12.335938 4.15625 -11.453125 C 3.707031 -10.566406 3.484375 -9.535156 3.484375 -8.359375 C 3.503906 -7.191406 3.738281 -6.15625 4.1875 -5.25 C 4.644531 -4.351562 5.273438 -3.648438 6.078125 -3.140625 C 6.878906 -2.628906 7.8125 -2.375 8.875 -2.375 C 9.632812 -2.375 10.390625 -2.539062 11.140625 -2.875 C 11.898438 -3.21875 12.535156 -3.679688 13.046875 -4.265625 L 13.046875 -6.921875 L 9.234375 -6.921875 C 8.753906 -6.921875 8.394531 -7.050781 8.15625 -7.3125 C 7.925781 -7.570312 7.8125 -7.859375 7.8125 -8.171875 C 7.8125 -8.515625 7.925781 -8.820312 8.15625 -9.09375 C 8.394531 -9.363281 8.753906 -9.5 9.234375 -9.5 L 14.421875 -9.5 C 15.023438 -9.5 15.4375 -9.367188 15.65625 -9.109375 C 15.875 -8.847656 15.984375 -8.507812 15.984375 -8.09375 Z M 15.984375 -4.015625 "/></g></g></g><g fill="#ffffff" fill-opacity="1"><g transform="translate(103.763331, 25.16118)"><g><path d="M 0.1875 -3.9375 C 0.0625 -4.4375 0.179688 -4.832031 0.546875 -5.125 C 0.910156 -5.425781 1.316406 -5.578125 1.765625 -5.578125 C 2.117188 -5.578125 2.425781 -5.492188 2.6875 -5.328125 C 2.957031 -5.160156 3.128906 -4.90625 3.203125 -4.5625 C 3.390625 -4 3.75 -3.566406 4.28125 -3.265625 C 4.8125 -2.960938 5.40625 -2.753906 6.0625 -2.640625 C 6.71875 -2.523438 7.332031 -2.46875 7.90625 -2.46875 C 8.363281 -2.46875 8.859375 -2.503906 9.390625 -2.578125 C 9.929688 -2.648438 10.441406 -2.773438 10.921875 -2.953125 C 11.410156 -3.140625 11.8125 -3.394531 12.125 -3.71875 C 12.4375 -4.050781 12.59375 -4.476562 12.59375 -5 C 12.59375 -5.550781 12.363281 -5.957031 11.90625 -6.21875 C 11.445312 -6.476562 10.859375 -6.664062 10.140625 -6.78125 C 9.429688 -6.894531 8.6875 -6.976562 7.90625 -7.03125 C 7.019531 -7.09375 6.128906 -7.191406 5.234375 -7.328125 C 4.347656 -7.472656 3.535156 -7.703125 2.796875 -8.015625 C 2.054688 -8.328125 1.460938 -8.78125 1.015625 -9.375 C 0.566406 -9.976562 0.34375 -10.773438 0.34375 -11.765625 C 0.34375 -12.648438 0.566406 -13.410156 1.015625 -14.046875 C 1.460938 -14.691406 2.050781 -15.21875 2.78125 -15.625 C 3.507812 -16.039062 4.300781 -16.347656 5.15625 -16.546875 C 6.007812 -16.742188 6.84375 -16.84375 7.65625 -16.84375 C 8.550781 -16.84375 9.492188 -16.738281 10.484375 -16.53125 C 11.472656 -16.320312 12.378906 -15.953125 13.203125 -15.421875 C 14.035156 -14.890625 14.648438 -14.148438 15.046875 -13.203125 C 15.179688 -12.710938 15.078125 -12.304688 14.734375 -11.984375 C 14.398438 -11.660156 14.007812 -11.5 13.5625 -11.5 C 13.28125 -11.5 13.015625 -11.5625 12.765625 -11.6875 C 12.515625 -11.820312 12.335938 -12.003906 12.234375 -12.234375 C 12.023438 -12.773438 11.660156 -13.175781 11.140625 -13.4375 C 10.617188 -13.695312 10.046875 -13.863281 9.421875 -13.9375 C 8.796875 -14.019531 8.210938 -14.0625 7.671875 -14.0625 C 7.328125 -14.0625 6.914062 -14.023438 6.4375 -13.953125 C 5.96875 -13.878906 5.503906 -13.753906 5.046875 -13.578125 C 4.597656 -13.410156 4.222656 -13.175781 3.921875 -12.875 C 3.617188 -12.570312 3.46875 -12.191406 3.46875 -11.734375 C 3.46875 -11.179688 3.679688 -10.765625 4.109375 -10.484375 C 4.546875 -10.210938 5.125 -10.023438 5.84375 -9.921875 C 6.5625 -9.816406 7.347656 -9.726562 8.203125 -9.65625 C 9.097656 -9.570312 9.992188 -9.472656 10.890625 -9.359375 C 11.785156 -9.242188 12.597656 -9.039062 13.328125 -8.75 C 14.054688 -8.46875 14.632812 -8.035156 15.0625 -7.453125 C 15.5 -6.867188 15.71875 -6.0625 15.71875 -5.03125 C 15.71875 -3.988281 15.46875 -3.128906 14.96875 -2.453125 C 14.476562 -1.773438 13.832031 -1.234375 13.03125 -0.828125 C 12.238281 -0.429688 11.390625 -0.148438 10.484375 0.015625 C 9.585938 0.179688 8.726562 0.265625 7.90625 0.265625 C 7.226562 0.265625 6.488281 0.195312 5.6875 0.0625 C 4.894531 -0.0625 4.117188 -0.285156 3.359375 -0.609375 C 2.609375 -0.929688 1.945312 -1.359375 1.375 -1.890625 C 0.800781 -2.429688 0.40625 -3.113281 0.1875 -3.9375 Z M 0.1875 -3.9375 "/></g></g></g><g fill="#ffffff" fill-opacity="1"><g transform="translate(121.281832, 25.16118)"><g><path d="M 7.03125 0.265625 C 6.226562 0.265625 5.425781 0.175781 4.625 0 C 3.832031 -0.175781 3.101562 -0.457031 2.4375 -0.84375 C 1.769531 -1.238281 1.226562 -1.773438 0.8125 -2.453125 C 0.40625 -3.128906 0.203125 -3.988281 0.203125 -5.03125 C 0.203125 -5.769531 0.382812 -6.441406 0.75 -7.046875 C 1.113281 -7.660156 1.617188 -8.128906 2.265625 -8.453125 C 1.691406 -8.835938 1.257812 -9.34375 0.96875 -9.96875 C 0.6875 -10.59375 0.546875 -11.226562 0.546875 -11.875 C 0.546875 -12.757812 0.734375 -13.515625 1.109375 -14.140625 C 1.492188 -14.765625 2.003906 -15.273438 2.640625 -15.671875 C 3.273438 -16.066406 3.976562 -16.359375 4.75 -16.546875 C 5.519531 -16.742188 6.296875 -16.84375 7.078125 -16.84375 C 7.878906 -16.84375 8.664062 -16.765625 9.4375 -16.609375 C 10.207031 -16.453125 10.90625 -16.195312 11.53125 -15.84375 C 12.15625 -15.488281 12.65625 -15.023438 13.03125 -14.453125 C 13.40625 -13.890625 13.59375 -13.191406 13.59375 -12.359375 C 13.59375 -11.929688 13.4375 -11.613281 13.125 -11.40625 C 12.820312 -11.195312 12.488281 -11.09375 12.125 -11.09375 C 11.757812 -11.09375 11.429688 -11.195312 11.140625 -11.40625 C 10.847656 -11.613281 10.703125 -11.929688 10.703125 -12.359375 C 10.703125 -12.847656 10.519531 -13.226562 10.15625 -13.5 C 9.800781 -13.769531 9.347656 -13.960938 8.796875 -14.078125 C 8.253906 -14.203125 7.679688 -14.265625 7.078125 -14.265625 C 6.472656 -14.265625 5.890625 -14.171875 5.328125 -13.984375 C 4.773438 -13.804688 4.328125 -13.539062 3.984375 -13.1875 C 3.640625 -12.832031 3.46875 -12.382812 3.46875 -11.84375 C 3.46875 -11.269531 3.632812 -10.816406 3.96875 -10.484375 C 4.3125 -10.160156 4.753906 -9.929688 5.296875 -9.796875 C 5.847656 -9.671875 6.429688 -9.609375 7.046875 -9.609375 L 14.109375 -9.609375 C 14.554688 -9.609375 14.894531 -9.472656 15.125 -9.203125 C 15.363281 -8.929688 15.484375 -8.625 15.484375 -8.28125 C 15.484375 -7.96875 15.367188 -7.679688 15.140625 -7.421875 C 14.921875 -7.160156 14.578125 -7.03125 14.109375 -7.03125 L 13.71875 -7.03125 L 13.71875 -5 C 13.71875 -3.988281 13.53125 -3.144531 13.15625 -2.46875 C 12.78125 -1.789062 12.273438 -1.253906 11.640625 -0.859375 C 11.015625 -0.460938 10.300781 -0.175781 9.5 0 C 8.695312 0.175781 7.875 0.265625 7.03125 0.265625 Z M 7.046875 -7.03125 C 6.390625 -7.03125 5.757812 -6.976562 5.15625 -6.875 C 4.550781 -6.78125 4.050781 -6.59375 3.65625 -6.3125 C 3.269531 -6.03125 3.078125 -5.582031 3.078125 -4.96875 C 3.078125 -4.289062 3.289062 -3.753906 3.71875 -3.359375 C 4.15625 -2.960938 4.679688 -2.679688 5.296875 -2.515625 C 5.910156 -2.347656 6.492188 -2.265625 7.046875 -2.265625 C 7.609375 -2.265625 8.179688 -2.34375 8.765625 -2.5 C 9.359375 -2.65625 9.859375 -2.929688 10.265625 -3.328125 C 10.671875 -3.734375 10.875 -4.28125 10.875 -4.96875 L 10.875 -7.03125 Z M 7.046875 -7.03125 "/></g></g></g><g fill="#ffffff" fill-opacity="1"><g transform="translate(138.019426, 25.16118)"><g><path d="M 17.578125 -8.28125 C 17.578125 -6.582031 17.222656 -5.085938 16.515625 -3.796875 C 15.816406 -2.515625 14.832031 -1.515625 13.5625 -0.796875 C 12.289062 -0.0859375 10.804688 0.265625 9.109375 0.265625 C 7.410156 0.265625 5.914062 -0.0859375 4.625 -0.796875 C 3.34375 -1.515625 2.347656 -2.515625 1.640625 -3.796875 C 0.929688 -5.085938 0.578125 -6.582031 0.578125 -8.28125 C 0.578125 -10 0.929688 -11.5 1.640625 -12.78125 C 2.347656 -14.0625 3.34375 -15.054688 4.625 -15.765625 C 5.914062 -16.484375 7.410156 -16.84375 9.109375 -16.84375 C 10.804688 -16.84375 12.289062 -16.484375 13.5625 -15.765625 C 14.832031 -15.054688 15.816406 -14.0625 16.515625 -12.78125 C 17.222656 -11.5 17.578125 -10 17.578125 -8.28125 Z M 9.109375 -2.390625 C 10.203125 -2.390625 11.148438 -2.632812 11.953125 -3.125 C 12.765625 -3.625 13.394531 -4.316406 13.84375 -5.203125 C 14.300781 -6.085938 14.53125 -7.113281 14.53125 -8.28125 C 14.53125 -9.457031 14.300781 -10.488281 13.84375 -11.375 C 13.394531 -12.257812 12.765625 -12.945312 11.953125 -13.4375 C 11.148438 -13.9375 10.203125 -14.1875 9.109375 -14.1875 C 8.015625 -14.1875 7.054688 -13.9375 6.234375 -13.4375 C 5.410156 -12.945312 4.769531 -12.257812 4.3125 -11.375 C 3.863281 -10.488281 3.640625 -9.457031 3.640625 -8.28125 C 3.640625 -7.113281 3.863281 -6.085938 4.3125 -5.203125 C 4.769531 -4.316406 5.410156 -3.625 6.234375 -3.125 C 7.054688 -2.632812 8.015625 -2.390625 9.109375 -2.390625 Z M 9.109375 -2.390625 "/></g></g></g><g fill="#ffffff" fill-opacity="1"><g transform="translate(158.114897, 25.16118)"><g/></g></g><g fill="#ffffff" fill-opacity="1"><g transform="translate(165.924159, 25.16118)"><g><path d="M 8.875 -16.578125 C 9.5 -16.578125 10.179688 -16.519531 10.921875 -16.40625 C 11.660156 -16.300781 12.359375 -16.09375 13.015625 -15.78125 C 13.671875 -15.46875 14.210938 -15.003906 14.640625 -14.390625 C 15.066406 -13.785156 15.28125 -13 15.28125 -12.03125 C 15.28125 -11.46875 15.144531 -10.890625 14.875 -10.296875 C 14.601562 -9.710938 14.226562 -9.28125 13.75 -9 C 14.644531 -8.632812 15.3125 -8.109375 15.75 -7.421875 C 16.195312 -6.742188 16.421875 -5.945312 16.421875 -5.03125 C 16.421875 -4.019531 16.21875 -3.1875 15.8125 -2.53125 C 15.40625 -1.882812 14.863281 -1.375 14.1875 -1 C 13.507812 -0.625 12.757812 -0.363281 11.9375 -0.21875 C 11.113281 -0.0703125 10.273438 0 9.421875 0 L 3.078125 0 C 2.660156 0 2.296875 -0.132812 1.984375 -0.40625 C 1.679688 -0.675781 1.53125 -1 1.53125 -1.375 L 1.53125 -15.203125 C 1.53125 -15.597656 1.679688 -15.925781 1.984375 -16.1875 C 2.296875 -16.445312 2.660156 -16.578125 3.078125 -16.578125 Z M 8.875 -14 L 4.5625 -14 L 4.5625 -9.96875 L 8.953125 -9.96875 C 9.835938 -9.96875 10.613281 -10.128906 11.28125 -10.453125 C 11.945312 -10.773438 12.28125 -11.300781 12.28125 -12.03125 C 12.28125 -12.601562 12.082031 -13.023438 11.6875 -13.296875 C 11.300781 -13.578125 10.84375 -13.765625 10.3125 -13.859375 C 9.789062 -13.953125 9.3125 -14 8.875 -14 Z M 10.171875 -7.390625 L 4.5625 -7.390625 L 4.5625 -2.578125 L 9.421875 -2.578125 C 10.046875 -2.578125 10.660156 -2.632812 11.265625 -2.75 C 11.878906 -2.875 12.378906 -3.113281 12.765625 -3.46875 C 13.160156 -3.832031 13.359375 -4.351562 13.359375 -5.03125 C 13.359375 -5.820312 13.046875 -6.410156 12.421875 -6.796875 C 11.804688 -7.191406 11.054688 -7.390625 10.171875 -7.390625 Z M 10.171875 -7.390625 "/></g></g></g><g fill="#ffffff" fill-opacity="1"><g transform="translate(184.509888, 25.16118)"><g><path d="M 17.578125 -8.28125 C 17.578125 -6.582031 17.222656 -5.085938 16.515625 -3.796875 C 15.816406 -2.515625 14.832031 -1.515625 13.5625 -0.796875 C 12.289062 -0.0859375 10.804688 0.265625 9.109375 0.265625 C 7.410156 0.265625 5.914062 -0.0859375 4.625 -0.796875 C 3.34375 -1.515625 2.347656 -2.515625 1.640625 -3.796875 C 0.929688 -5.085938 0.578125 -6.582031 0.578125 -8.28125 C 0.578125 -10 0.929688 -11.5 1.640625 -12.78125 C 2.347656 -14.0625 3.34375 -15.054688 4.625 -15.765625 C 5.914062 -16.484375 7.410156 -16.84375 9.109375 -16.84375 C 10.804688 -16.84375 12.289062 -16.484375 13.5625 -15.765625 C 14.832031 -15.054688 15.816406 -14.0625 16.515625 -12.78125 C 17.222656 -11.5 17.578125 -10 17.578125 -8.28125 Z M 9.109375 -2.390625 C 10.203125 -2.390625 11.148438 -2.632812 11.953125 -3.125 C 12.765625 -3.625 13.394531 -4.316406 13.84375 -5.203125 C 14.300781 -6.085938 14.53125 -7.113281 14.53125 -8.28125 C 14.53125 -9.457031 14.300781 -10.488281 13.84375 -11.375 C 13.394531 -12.257812 12.765625 -12.945312 11.953125 -13.4375 C 11.148438 -13.9375 10.203125 -14.1875 9.109375 -14.1875 C 8.015625 -14.1875 7.054688 -13.9375 6.234375 -13.4375 C 5.410156 -12.945312 4.769531 -12.257812 4.3125 -11.375 C 3.863281 -10.488281 3.640625 -9.457031 3.640625 -8.28125 C 3.640625 -7.113281 3.863281 -6.085938 4.3125 -5.203125 C 4.769531 -4.316406 5.410156 -3.625 6.234375 -3.125 C 7.054688 -2.632812 8.015625 -2.390625 9.109375 -2.390625 Z M 9.109375 -2.390625 "/></g></g></g><g fill="#ffffff" fill-opacity="1"><g transform="translate(204.605358, 25.16118)"><g><path d="M 13.484375 -16.578125 C 13.984375 -16.578125 14.363281 -16.4375 14.625 -16.15625 C 14.882812 -15.882812 15.015625 -15.578125 15.015625 -15.234375 C 15.015625 -14.898438 14.882812 -14.59375 14.625 -14.3125 C 14.363281 -14.039062 13.984375 -13.90625 13.484375 -13.90625 L 8.640625 -13.90625 L 8.671875 -1.375 C 8.671875 -0.90625 8.5 -0.554688 8.15625 -0.328125 C 7.820312 -0.109375 7.476562 0 7.125 0 C 6.757812 0 6.414062 -0.109375 6.09375 -0.328125 C 5.78125 -0.554688 5.625 -0.90625 5.625 -1.375 L 5.625 -13.90625 L 0.8125 -13.90625 C 0.300781 -13.90625 -0.0664062 -14.039062 -0.296875 -14.3125 C -0.535156 -14.59375 -0.65625 -14.898438 -0.65625 -15.234375 C -0.65625 -15.578125 -0.535156 -15.882812 -0.296875 -16.15625 C -0.0664062 -16.4375 0.300781 -16.578125 0.8125 -16.578125 Z M 13.484375 -16.578125 "/></g></g></g></g></g></svg>